<?xml version="1.0" encoding="utf-8"?>
<!-- Generator: Adobe Illustrator 20.0.0, SVG Export Plug-In . SVG Version: 6.00 Build 0)  -->
<svg version="1.1" id="Layer_1" xmlns="http://www.w3.org/2000/svg" xmlns:xlink="http://www.w3.org/1999/xlink" x="0px" y="0px"
	 width="50px" height="50px" viewBox="0 0 50 50" style="enable-background:new 0 0 50 50;" xml:space="preserve">
<style type="text/css">
	.st0{enable-background:new    ;}
</style>
<g class="st0">
	<path d="M22,8.4H7.1l-1.5,10c0.9-0.1,1.7-0.2,3.2-0.2c3,0,6,0.7,8.4,2.1c3.1,1.7,5.6,5.1,5.6,10c0,7.6-6.1,13.3-14.5,13.3
		c-4.3,0-7.9-1.2-9.7-2.4l1.3-4c1.6,1,4.8,2.2,8.3,2.2c5,0,9.2-3.2,9.2-8.5c-0.1-5-3.4-8.6-11.2-8.6c-2.2,0-4,0.2-5.4,0.4L3.3,4H22
		V8.4z"/>
</g>
</svg>
