<?xml version="1.0" encoding="utf-8"?>
<!-- Generator: Adobe Illustrator 20.0.0, SVG Export Plug-In . SVG Version: 6.00 Build 0)  -->
<svg version="1.1" id="Layer_1" xmlns="http://www.w3.org/2000/svg" xmlns:xlink="http://www.w3.org/1999/xlink" x="0px" y="0px"
	 width="50px" height="50px" viewBox="0 0 50 50" style="enable-background:new 0 0 50 50;" xml:space="preserve">
<style type="text/css">
	.st0{enable-background:new    ;}
</style>
<g class="st0">
	<path d="M21,7.7c-1.1-0.1-2.5,0-4,0.2C8.7,9.3,4.3,15.4,3.4,21.8h0.2c1.9-2.5,5.1-4.5,9.4-4.5c6.9,0,11.8,5,11.8,12.6
		c0,7.1-4.9,13.7-13,13.7C3.5,43.7-2,37.2-2,27c0-7.7,2.8-13.7,6.6-17.6c3.2-3.2,7.6-5.2,12.5-5.8C18.7,3.5,20,3.4,21,3.4V7.7z
		 M19.5,30.2c0-5.6-3.2-8.9-8-8.9c-3.2,0-6.1,2-7.6,4.8c-0.4,0.6-0.6,1.4-0.6,2.3c0.1,6.4,3.1,11.2,8.6,11.2
		C16.4,39.6,19.5,35.8,19.5,30.2z"/>
</g>
</svg>
